<svg width="32" height="32" viewBox="0 0 32 32" fill="none" xmlns="http://www.w3.org/2000/svg">
  <!-- Sage green circle background -->
  <circle cx="16" cy="16" r="16" fill="#A7C4A0"/>
  
  <!-- Earth brown leaf shape -->
  <path d="M16 8C16 8 12 10 10 14C8 18 9 22 12 24C12 24 13 20 16 18C19 20 20 24 20 24C23 22 24 18 22 14C20 10 16 8 16 8Z" fill="#5A4633"/>
  
  <!-- Honey beige vein details on leaf -->
  <path d="M16 8L16 18M13 12C13 12 14 14 16 15M19 12C19 12 18 14 16 15" stroke="#E9DCC9" stroke-width="0.5" stroke-linecap="round"/>
  
  <!-- Small paw print accent (earth brown) -->
  <ellipse cx="22" cy="24" rx="1.5" ry="1.8" fill="#5A4633"/>
  <circle cx="20.5" cy="22.5" r="0.8" fill="#5A4633"/>
  <circle cx="23.5" cy="22.5" r="0.8" fill="#5A4633"/>
  <circle cx="21.5" cy="21" r="0.7" fill="#5A4633"/>
  <circle cx="22.5" cy="21" r="0.7" fill="#5A4633"/>
</svg>
