<svg width="180" height="180" viewBox="0 0 180 180" fill="none" xmlns="http://www.w3.org/2000/svg">
  <!-- Replaced default icon with natural pet healing theme: leaf with paw print -->
  <defs>
    <clipPath id="clip0">
      <rect width="180" height="180" rx="37" fill="white"/>
    </clipPath>
  </defs>
  
  <g clip-path="url(#clip0)">
    <!-- Background circle -->
    <circle cx="90" cy="90" r="90" fill="#A7C4A0"/>
    
    <!-- Leaf shape -->
    <path d="M90 40 C110 50, 130 70, 130 95 C130 115, 115 130, 95 135 C90 136, 85 136, 80 135 C60 130, 45 115, 45 95 C45 70, 65 50, 85 40 C87 39, 88 39, 90 40 Z" 
          fill="#5A4633"/>
    
    <!-- Leaf veins -->
    <path d="M90 45 L90 130" stroke="#E9DCC9" stroke-width="2" stroke-linecap="round"/>
    <path d="M90 65 C100 70, 110 80, 115 95" stroke="#E9DCC9" stroke-width="1.5" stroke-linecap="round" fill="none"/>
    <path d="M90 65 C80 70, 70 80, 65 95" stroke="#E9DCC9" stroke-width="1.5" stroke-linecap="round" fill="none"/>
    <path d="M90 90 C100 93, 107 98, 112 105" stroke="#E9DCC9" stroke-width="1.5" stroke-linecap="round" fill="none"/>
    <path d="M90 90 C80 93, 73 98, 68 105" stroke="#E9DCC9" stroke-width="1.5" stroke-linecap="round" fill="none"/>
    
    <!-- Small paw print accent -->
    <g transform="translate(105, 115) scale(0.4)">
      <ellipse cx="0" cy="0" rx="8" ry="10" fill="#E9DCC9"/>
      <ellipse cx="-8" cy="-10" rx="5" ry="6" fill="#E9DCC9"/>
      <ellipse cx="8" cy="-10" rx="5" ry="6" fill="#E9DCC9"/>
      <ellipse cx="-12" cy="-3" rx="5" ry="6" fill="#E9DCC9"/>
      <ellipse cx="12" cy="-3" rx="5" ry="6" fill="#E9DCC9"/>
    </g>
  </g>
</svg>
